<mxfile host="app.diagrams.net" agent="Mozilla/5.0 (X11; Linux x86_64; rv:134.0) Gecko/20100101 Firefox/134.0" version="26.0.10">
  <diagram name="Page-1" id="7dypySQ1JDGYooI2YT-G">
    <mxGraphModel dx="1050" dy="613" grid="1" gridSize="10" guides="1" tooltips="1" connect="1" arrows="1" fold="1" page="1" pageScale="1" pageWidth="850" pageHeight="1100" math="0" shadow="0">
      <root>
        <mxCell id="0" />
        <mxCell id="1" parent="0" />
        <mxCell id="NVh-Q_JutHyr8wLeL-ER-1" value="«component»&lt;br&gt;&lt;b&gt;Gestor de la arquitectura&lt;/b&gt;" style="html=1;dropTarget=0;whiteSpace=wrap;" parent="1" vertex="1">
          <mxGeometry x="450" y="720" width="180" height="70" as="geometry" />
        </mxCell>
        <mxCell id="NVh-Q_JutHyr8wLeL-ER-2" value="" style="shape=module;jettyWidth=8;jettyHeight=4;" parent="NVh-Q_JutHyr8wLeL-ER-1" vertex="1">
          <mxGeometry x="1" width="20" height="20" relative="1" as="geometry">
            <mxPoint x="-27" y="7" as="offset" />
          </mxGeometry>
        </mxCell>
        <mxCell id="NVh-Q_JutHyr8wLeL-ER-3" value="«subsystem»&lt;br&gt;&lt;b&gt;Analizador semántico&lt;br&gt;&lt;/b&gt;" style="html=1;dropTarget=0;whiteSpace=wrap;fillColor=#eeeeee;strokeColor=#36393d;verticalAlign=top;movable=0;resizable=0;rotatable=0;deletable=0;editable=0;locked=1;connectable=0;" parent="1" vertex="1">
          <mxGeometry x="580" y="370" width="220" height="290" as="geometry" />
        </mxCell>
        <mxCell id="NVh-Q_JutHyr8wLeL-ER-4" value="" style="shape=module;jettyWidth=8;jettyHeight=4;" parent="NVh-Q_JutHyr8wLeL-ER-3" vertex="1">
          <mxGeometry x="1" width="20" height="20" relative="1" as="geometry">
            <mxPoint x="-27" y="7" as="offset" />
          </mxGeometry>
        </mxCell>
        <mxCell id="NVh-Q_JutHyr8wLeL-ER-5" value="«subsystem»&lt;br&gt;&lt;b&gt;Analizador sintáctico&lt;/b&gt;" style="html=1;dropTarget=0;whiteSpace=wrap;fillColor=#eeeeee;strokeColor=#36393d;align=center;verticalAlign=top;movable=0;resizable=0;rotatable=0;deletable=0;editable=0;locked=1;connectable=0;" parent="1" vertex="1">
          <mxGeometry x="90" y="370" width="440" height="290" as="geometry" />
        </mxCell>
        <mxCell id="NVh-Q_JutHyr8wLeL-ER-6" value="" style="shape=module;jettyWidth=8;jettyHeight=4;" parent="NVh-Q_JutHyr8wLeL-ER-5" vertex="1">
          <mxGeometry x="1" width="20" height="20" relative="1" as="geometry">
            <mxPoint x="-27" y="7" as="offset" />
          </mxGeometry>
        </mxCell>
        <mxCell id="IwS8LwtouwhG9g_UqRf3-4" style="rounded=0;orthogonalLoop=1;jettySize=auto;html=1;endSize=10;endArrow=oval;endFill=0;edgeStyle=orthogonalEdgeStyle;exitX=0.75;exitY=1;exitDx=0;exitDy=0;" parent="1" source="NVh-Q_JutHyr8wLeL-ER-7" edge="1">
          <mxGeometry relative="1" as="geometry">
            <mxPoint x="310" y="510" as="targetPoint" />
            <Array as="points">
              <mxPoint x="245" y="510" />
            </Array>
          </mxGeometry>
        </mxCell>
        <mxCell id="IwS8LwtouwhG9g_UqRf3-5" value="tokens" style="edgeLabel;html=1;align=center;verticalAlign=middle;resizable=0;points=[];labelBackgroundColor=none;" parent="IwS8LwtouwhG9g_UqRf3-4" vertex="1" connectable="0">
          <mxGeometry x="1" y="5" relative="1" as="geometry">
            <mxPoint y="-15" as="offset" />
          </mxGeometry>
        </mxCell>
        <mxCell id="NVh-Q_JutHyr8wLeL-ER-7" value="«component»&lt;br&gt;&lt;b&gt;Lexer&lt;/b&gt;" style="html=1;dropTarget=0;whiteSpace=wrap;" parent="1" vertex="1">
          <mxGeometry x="110" y="420" width="180" height="70" as="geometry" />
        </mxCell>
        <mxCell id="NVh-Q_JutHyr8wLeL-ER-8" value="" style="shape=module;jettyWidth=8;jettyHeight=4;" parent="NVh-Q_JutHyr8wLeL-ER-7" vertex="1">
          <mxGeometry x="1" width="20" height="20" relative="1" as="geometry">
            <mxPoint x="-27" y="7" as="offset" />
          </mxGeometry>
        </mxCell>
        <mxCell id="NVh-Q_JutHyr8wLeL-ER-9" value="«component»&lt;br&gt;&lt;b&gt;Evaluador de pseudo-instrucciones&lt;/b&gt;" style="html=1;dropTarget=0;whiteSpace=wrap;" parent="1" vertex="1">
          <mxGeometry x="600" y="420" width="180" height="70" as="geometry" />
        </mxCell>
        <mxCell id="NVh-Q_JutHyr8wLeL-ER-10" value="" style="shape=module;jettyWidth=8;jettyHeight=4;" parent="NVh-Q_JutHyr8wLeL-ER-9" vertex="1">
          <mxGeometry x="1" width="20" height="20" relative="1" as="geometry">
            <mxPoint x="-27" y="7" as="offset" />
          </mxGeometry>
        </mxCell>
        <mxCell id="IwS8LwtouwhG9g_UqRf3-8" style="edgeStyle=orthogonalEdgeStyle;rounded=0;orthogonalLoop=1;jettySize=auto;html=1;endArrow=halfCircle;endFill=0;exitX=0.5;exitY=0;exitDx=0;exitDy=0;elbow=vertical;" parent="1" source="NVh-Q_JutHyr8wLeL-ER-11" edge="1">
          <mxGeometry relative="1" as="geometry">
            <mxPoint x="310" y="510" as="targetPoint" />
            <Array as="points">
              <mxPoint x="420" y="510" />
            </Array>
          </mxGeometry>
        </mxCell>
        <mxCell id="NVh-Q_JutHyr8wLeL-ER-11" value="«component»&lt;br&gt;&lt;b&gt;Parser de instrucciones&lt;/b&gt;" style="html=1;dropTarget=0;whiteSpace=wrap;" parent="1" vertex="1">
          <mxGeometry x="330" y="570" width="180" height="70" as="geometry" />
        </mxCell>
        <mxCell id="NVh-Q_JutHyr8wLeL-ER-12" value="" style="shape=module;jettyWidth=8;jettyHeight=4;" parent="NVh-Q_JutHyr8wLeL-ER-11" vertex="1">
          <mxGeometry x="1" width="20" height="20" relative="1" as="geometry">
            <mxPoint x="-27" y="7" as="offset" />
          </mxGeometry>
        </mxCell>
        <mxCell id="IwS8LwtouwhG9g_UqRf3-11" style="edgeStyle=orthogonalEdgeStyle;rounded=0;orthogonalLoop=1;jettySize=auto;html=1;dashed=1;endArrow=open;endFill=0;exitX=0.5;exitY=0;exitDx=0;exitDy=0;entryX=0.5;entryY=1;entryDx=0;entryDy=0;" parent="1" source="NVh-Q_JutHyr8wLeL-ER-13" target="NVh-Q_JutHyr8wLeL-ER-7" edge="1">
          <mxGeometry relative="1" as="geometry" />
        </mxCell>
        <mxCell id="NVh-Q_JutHyr8wLeL-ER-13" value="«component»&lt;br&gt;&lt;b&gt;Parser de expresiones&lt;br&gt;&lt;/b&gt;" style="html=1;dropTarget=0;whiteSpace=wrap;" parent="1" vertex="1">
          <mxGeometry x="110" y="570" width="180" height="70" as="geometry" />
        </mxCell>
        <mxCell id="NVh-Q_JutHyr8wLeL-ER-14" value="" style="shape=module;jettyWidth=8;jettyHeight=4;" parent="NVh-Q_JutHyr8wLeL-ER-13" vertex="1">
          <mxGeometry x="1" width="20" height="20" relative="1" as="geometry">
            <mxPoint x="-27" y="7" as="offset" />
          </mxGeometry>
        </mxCell>
        <mxCell id="IwS8LwtouwhG9g_UqRf3-6" style="edgeStyle=orthogonalEdgeStyle;rounded=0;orthogonalLoop=1;jettySize=auto;html=1;endArrow=halfCircle;endFill=0;exitX=0.5;exitY=1;exitDx=0;exitDy=0;" parent="1" source="NVh-Q_JutHyr8wLeL-ER-15" edge="1">
          <mxGeometry relative="1" as="geometry">
            <mxPoint x="310" y="510" as="targetPoint" />
            <Array as="points">
              <mxPoint x="420" y="510" />
            </Array>
          </mxGeometry>
        </mxCell>
        <mxCell id="IwS8LwtouwhG9g_UqRf3-9" style="rounded=1;orthogonalLoop=1;jettySize=auto;html=1;exitX=0;exitY=0.5;exitDx=0;exitDy=0;entryX=1;entryY=0.5;entryDx=0;entryDy=0;dashed=1;endArrow=open;endFill=0;" parent="1" source="NVh-Q_JutHyr8wLeL-ER-15" target="NVh-Q_JutHyr8wLeL-ER-7" edge="1">
          <mxGeometry relative="1" as="geometry" />
        </mxCell>
        <mxCell id="NVh-Q_JutHyr8wLeL-ER-15" value="«component»&lt;br&gt;&lt;b&gt;Parser&lt;br&gt;&lt;/b&gt;" style="html=1;dropTarget=0;whiteSpace=wrap;" parent="1" vertex="1">
          <mxGeometry x="330" y="420" width="180" height="70" as="geometry" />
        </mxCell>
        <mxCell id="NVh-Q_JutHyr8wLeL-ER-16" value="" style="shape=module;jettyWidth=8;jettyHeight=4;" parent="NVh-Q_JutHyr8wLeL-ER-15" vertex="1">
          <mxGeometry x="1" width="20" height="20" relative="1" as="geometry">
            <mxPoint x="-27" y="7" as="offset" />
          </mxGeometry>
        </mxCell>
        <mxCell id="NVh-Q_JutHyr8wLeL-ER-17" value="«component»&lt;br&gt;&lt;b&gt;Traductor&lt;/b&gt;" style="html=1;dropTarget=0;whiteSpace=wrap;" parent="1" vertex="1">
          <mxGeometry x="600" y="570" width="180" height="70" as="geometry" />
        </mxCell>
        <mxCell id="NVh-Q_JutHyr8wLeL-ER-18" value="" style="shape=module;jettyWidth=8;jettyHeight=4;" parent="NVh-Q_JutHyr8wLeL-ER-17" vertex="1">
          <mxGeometry x="1" width="20" height="20" relative="1" as="geometry">
            <mxPoint x="-27" y="7" as="offset" />
          </mxGeometry>
        </mxCell>
        <mxCell id="NVh-Q_JutHyr8wLeL-ER-20" value="" style="rounded=0;orthogonalLoop=1;jettySize=auto;html=1;endArrow=halfCircle;endFill=0;endSize=6;strokeWidth=1;sketch=0;exitX=0.5;exitY=0;exitDx=0;exitDy=0;" parent="1" source="NVh-Q_JutHyr8wLeL-ER-17" target="NVh-Q_JutHyr8wLeL-ER-22" edge="1">
          <mxGeometry relative="1" as="geometry">
            <mxPoint x="680" y="535" as="sourcePoint" />
          </mxGeometry>
        </mxCell>
        <mxCell id="NVh-Q_JutHyr8wLeL-ER-26" value="&lt;div&gt;pseudo-instrucción&lt;/div&gt;" style="edgeLabel;html=1;align=center;verticalAlign=middle;resizable=0;points=[];labelBackgroundColor=#EEEEEE;" parent="NVh-Q_JutHyr8wLeL-ER-20" vertex="1" connectable="0">
          <mxGeometry x="-0.6" y="-1" relative="1" as="geometry">
            <mxPoint x="-1" y="-19" as="offset" />
          </mxGeometry>
        </mxCell>
        <mxCell id="NVh-Q_JutHyr8wLeL-ER-21" value="" style="rounded=0;orthogonalLoop=1;jettySize=auto;html=1;endArrow=oval;endFill=0;sketch=0;sourcePerimeterSpacing=0;targetPerimeterSpacing=0;endSize=10;exitX=0.5;exitY=1;exitDx=0;exitDy=0;" parent="1" source="NVh-Q_JutHyr8wLeL-ER-9" target="NVh-Q_JutHyr8wLeL-ER-22" edge="1">
          <mxGeometry relative="1" as="geometry">
            <mxPoint x="640" y="535" as="sourcePoint" />
          </mxGeometry>
        </mxCell>
        <mxCell id="NVh-Q_JutHyr8wLeL-ER-22" value="" style="ellipse;whiteSpace=wrap;html=1;align=center;aspect=fixed;fillColor=none;strokeColor=none;resizable=0;perimeter=centerPerimeter;rotatable=0;allowArrows=0;points=[];outlineConnect=1;" parent="1" vertex="1">
          <mxGeometry x="685" y="520" width="10" height="10" as="geometry" />
        </mxCell>
        <mxCell id="NVh-Q_JutHyr8wLeL-ER-29" value="" style="rounded=0;orthogonalLoop=1;jettySize=auto;html=1;endArrow=halfCircle;endFill=0;endSize=6;strokeWidth=1;sketch=0;edgeStyle=orthogonalEdgeStyle;exitX=0;exitY=0.25;exitDx=0;exitDy=0;" parent="1" source="NVh-Q_JutHyr8wLeL-ER-17" target="NVh-Q_JutHyr8wLeL-ER-31" edge="1">
          <mxGeometry relative="1" as="geometry">
            <mxPoint x="650" y="755" as="sourcePoint" />
          </mxGeometry>
        </mxCell>
        <mxCell id="NVh-Q_JutHyr8wLeL-ER-32" value="AST" style="edgeLabel;html=1;align=center;verticalAlign=middle;resizable=0;points=[];labelBackgroundColor=none;" parent="NVh-Q_JutHyr8wLeL-ER-29" vertex="1" connectable="0">
          <mxGeometry x="0.1172" y="-2" relative="1" as="geometry">
            <mxPoint x="-2" y="-91" as="offset" />
          </mxGeometry>
        </mxCell>
        <mxCell id="NVh-Q_JutHyr8wLeL-ER-30" value="" style="rounded=0;orthogonalLoop=1;jettySize=auto;html=1;endArrow=oval;endFill=0;sketch=0;sourcePerimeterSpacing=0;targetPerimeterSpacing=0;endSize=10;" parent="1" source="NVh-Q_JutHyr8wLeL-ER-15" target="NVh-Q_JutHyr8wLeL-ER-31" edge="1">
          <mxGeometry relative="1" as="geometry">
            <mxPoint x="610" y="755" as="sourcePoint" />
          </mxGeometry>
        </mxCell>
        <mxCell id="NVh-Q_JutHyr8wLeL-ER-31" value="" style="ellipse;whiteSpace=wrap;html=1;align=center;aspect=fixed;fillColor=none;strokeColor=none;resizable=0;perimeter=centerPerimeter;rotatable=0;allowArrows=0;points=[];outlineConnect=1;" parent="1" vertex="1">
          <mxGeometry x="550" y="450" width="10" height="10" as="geometry" />
        </mxCell>
        <mxCell id="NVh-Q_JutHyr8wLeL-ER-33" value="" style="rounded=0;orthogonalLoop=1;jettySize=auto;endArrow=oval;endFill=0;sketch=0;sourcePerimeterSpacing=0;targetPerimeterSpacing=0;endSize=10;" parent="1" source="NVh-Q_JutHyr8wLeL-ER-17" edge="1">
          <mxGeometry relative="1" as="geometry">
            <mxPoint x="520" y="795" as="sourcePoint" />
            <mxPoint x="830" y="605" as="targetPoint" />
          </mxGeometry>
        </mxCell>
        <mxCell id="NVh-Q_JutHyr8wLeL-ER-34" value="&lt;div&gt;compilar&lt;/div&gt;&lt;div&gt;programa&lt;/div&gt;" style="edgeLabel;html=1;align=center;verticalAlign=middle;resizable=0;points=[];labelBackgroundColor=none;" parent="NVh-Q_JutHyr8wLeL-ER-33" vertex="1" connectable="0">
          <mxGeometry x="0.6" y="-2" relative="1" as="geometry">
            <mxPoint x="10" y="16" as="offset" />
          </mxGeometry>
        </mxCell>
        <mxCell id="NVh-Q_JutHyr8wLeL-ER-35" value="" style="rounded=0;orthogonalLoop=1;jettySize=auto;html=1;endArrow=oval;endFill=0;sketch=0;sourcePerimeterSpacing=0;targetPerimeterSpacing=0;endSize=10;" parent="1" source="NVh-Q_JutHyr8wLeL-ER-1" edge="1">
          <mxGeometry relative="1" as="geometry">
            <mxPoint x="1100" y="1145" as="sourcePoint" />
            <mxPoint x="410" y="755" as="targetPoint" />
          </mxGeometry>
        </mxCell>
        <mxCell id="NVh-Q_JutHyr8wLeL-ER-36" value="cargar ISA" style="edgeLabel;html=1;align=center;verticalAlign=middle;resizable=0;points=[];labelBackgroundColor=none;" parent="NVh-Q_JutHyr8wLeL-ER-35" vertex="1" connectable="0">
          <mxGeometry x="0.6" y="-2" relative="1" as="geometry">
            <mxPoint x="-8" y="15" as="offset" />
          </mxGeometry>
        </mxCell>
        <mxCell id="NVh-Q_JutHyr8wLeL-ER-38" value="" style="rounded=0;orthogonalLoop=1;jettySize=auto;html=1;endArrow=halfCircle;endFill=0;endSize=6;strokeWidth=1;sketch=0;exitX=0.25;exitY=1;exitDx=0;exitDy=0;edgeStyle=orthogonalEdgeStyle;" parent="1" source="NVh-Q_JutHyr8wLeL-ER-17" target="NVh-Q_JutHyr8wLeL-ER-40" edge="1">
          <mxGeometry relative="1" as="geometry">
            <mxPoint x="620" y="475" as="sourcePoint" />
            <Array as="points">
              <mxPoint x="645" y="685" />
            </Array>
          </mxGeometry>
        </mxCell>
        <mxCell id="NVh-Q_JutHyr8wLeL-ER-39" value="" style="rounded=0;orthogonalLoop=1;jettySize=auto;html=1;endArrow=oval;endFill=0;sketch=0;sourcePerimeterSpacing=0;targetPerimeterSpacing=0;endSize=10;exitX=0.5;exitY=0;exitDx=0;exitDy=0;" parent="1" source="NVh-Q_JutHyr8wLeL-ER-1" target="NVh-Q_JutHyr8wLeL-ER-40" edge="1">
          <mxGeometry relative="1" as="geometry">
            <mxPoint x="890" y="1005" as="sourcePoint" />
          </mxGeometry>
        </mxCell>
        <mxCell id="NVh-Q_JutHyr8wLeL-ER-41" value="ISA" style="edgeLabel;html=1;align=center;verticalAlign=middle;resizable=0;points=[];" parent="NVh-Q_JutHyr8wLeL-ER-39" vertex="1" connectable="0">
          <mxGeometry x="0.9247" y="1" relative="1" as="geometry">
            <mxPoint x="1" y="18" as="offset" />
          </mxGeometry>
        </mxCell>
        <mxCell id="NVh-Q_JutHyr8wLeL-ER-40" value="" style="ellipse;whiteSpace=wrap;html=1;align=center;aspect=fixed;fillColor=none;strokeColor=none;resizable=0;perimeter=centerPerimeter;rotatable=0;allowArrows=0;points=[];outlineConnect=1;" parent="1" vertex="1">
          <mxGeometry x="535" y="680" width="10" height="10" as="geometry" />
        </mxCell>
        <mxCell id="IwS8LwtouwhG9g_UqRf3-14" value="" style="rounded=0;orthogonalLoop=1;jettySize=auto;html=1;endArrow=halfCircle;endFill=0;endSize=6;strokeWidth=1;sketch=0;exitX=0;exitY=0.75;exitDx=0;exitDy=0;" parent="1" source="NVh-Q_JutHyr8wLeL-ER-17" edge="1">
          <mxGeometry relative="1" as="geometry">
            <mxPoint x="550" y="705" as="sourcePoint" />
            <mxPoint x="555" y="623" as="targetPoint" />
          </mxGeometry>
        </mxCell>
        <mxCell id="IwS8LwtouwhG9g_UqRf3-17" value="AST" style="edgeLabel;html=1;align=center;verticalAlign=middle;resizable=0;points=[];labelBackgroundColor=none;" parent="IwS8LwtouwhG9g_UqRf3-14" vertex="1" connectable="0">
          <mxGeometry x="0.4768" y="3" relative="1" as="geometry">
            <mxPoint x="-12" y="14" as="offset" />
          </mxGeometry>
        </mxCell>
        <mxCell id="IwS8LwtouwhG9g_UqRf3-15" value="" style="rounded=0;orthogonalLoop=1;jettySize=auto;html=1;endArrow=oval;endFill=0;sketch=0;sourcePerimeterSpacing=0;targetPerimeterSpacing=0;endSize=10;exitX=1;exitY=0.75;exitDx=0;exitDy=0;" parent="1" source="NVh-Q_JutHyr8wLeL-ER-11" edge="1">
          <mxGeometry relative="1" as="geometry">
            <mxPoint x="510" y="705" as="sourcePoint" />
            <mxPoint x="555" y="623" as="targetPoint" />
          </mxGeometry>
        </mxCell>
        <mxCell id="IwS8LwtouwhG9g_UqRf3-18" value="" style="rounded=0;orthogonalLoop=1;jettySize=auto;html=1;endArrow=halfCircle;endFill=0;endSize=6;strokeWidth=1;sketch=0;exitX=0.5;exitY=1;exitDx=0;exitDy=0;edgeStyle=orthogonalEdgeStyle;" parent="1" source="NVh-Q_JutHyr8wLeL-ER-15" target="IwS8LwtouwhG9g_UqRf3-20" edge="1">
          <mxGeometry relative="1" as="geometry">
            <mxPoint x="610" y="295" as="sourcePoint" />
            <Array as="points">
              <mxPoint x="420" y="550" />
            </Array>
          </mxGeometry>
        </mxCell>
        <mxCell id="IwS8LwtouwhG9g_UqRf3-21" value="AST" style="edgeLabel;html=1;align=center;verticalAlign=middle;resizable=0;points=[];labelBackgroundColor=none;" parent="IwS8LwtouwhG9g_UqRf3-18" vertex="1" connectable="0">
          <mxGeometry x="0.687" y="1" relative="1" as="geometry">
            <mxPoint x="-27" y="19" as="offset" />
          </mxGeometry>
        </mxCell>
        <mxCell id="IwS8LwtouwhG9g_UqRf3-19" value="" style="rounded=0;orthogonalLoop=1;jettySize=auto;html=1;endArrow=oval;endFill=0;sketch=0;sourcePerimeterSpacing=0;targetPerimeterSpacing=0;endSize=10;exitX=0.75;exitY=0;exitDx=0;exitDy=0;edgeStyle=orthogonalEdgeStyle;" parent="1" source="NVh-Q_JutHyr8wLeL-ER-13" target="IwS8LwtouwhG9g_UqRf3-20" edge="1">
          <mxGeometry relative="1" as="geometry">
            <mxPoint x="570" y="295" as="sourcePoint" />
            <Array as="points">
              <mxPoint x="245" y="550" />
            </Array>
          </mxGeometry>
        </mxCell>
        <mxCell id="IwS8LwtouwhG9g_UqRf3-20" value="" style="ellipse;whiteSpace=wrap;html=1;align=center;aspect=fixed;fillColor=none;strokeColor=none;resizable=0;perimeter=centerPerimeter;rotatable=0;allowArrows=0;points=[];outlineConnect=1;" parent="1" vertex="1">
          <mxGeometry x="305" y="545" width="10" height="10" as="geometry" />
        </mxCell>
        <mxCell id="K3wPALjjns68m9dTvRk7-1" value="" style="rounded=0;orthogonalLoop=1;jettySize=auto;html=1;endArrow=halfCircle;endFill=0;endSize=6;strokeWidth=1;sketch=0;fontSize=12;exitX=0.5;exitY=0;exitDx=0;exitDy=0;edgeStyle=orthogonalEdgeStyle;" parent="1" source="NVh-Q_JutHyr8wLeL-ER-11" target="IwS8LwtouwhG9g_UqRf3-20" edge="1">
          <mxGeometry relative="1" as="geometry">
            <mxPoint x="355" y="775" as="sourcePoint" />
          </mxGeometry>
        </mxCell>
        <mxCell id="K3wPALjjns68m9dTvRk7-2" value="" style="ellipse;whiteSpace=wrap;html=1;align=center;aspect=fixed;fillColor=none;strokeColor=none;resizable=0;perimeter=centerPerimeter;rotatable=0;allowArrows=0;points=[];outlineConnect=1;" parent="1" vertex="1">
          <mxGeometry x="330" y="770" width="10" height="10" as="geometry" />
        </mxCell>
        <mxCell id="6i6IMKK7F-a5kFC0047l-1" value="«component»&lt;br&gt;&lt;b&gt;Renderizador de errores&lt;br&gt;&lt;/b&gt;" style="html=1;dropTarget=0;whiteSpace=wrap;" vertex="1" parent="1">
          <mxGeometry x="645" y="720" width="180" height="70" as="geometry" />
        </mxCell>
        <mxCell id="6i6IMKK7F-a5kFC0047l-2" value="" style="shape=module;jettyWidth=8;jettyHeight=4;" vertex="1" parent="6i6IMKK7F-a5kFC0047l-1">
          <mxGeometry x="1" width="20" height="20" relative="1" as="geometry">
            <mxPoint x="-27" y="7" as="offset" />
          </mxGeometry>
        </mxCell>
        <mxCell id="6i6IMKK7F-a5kFC0047l-3" value="" style="rounded=0;orthogonalLoop=1;jettySize=auto;html=1;endArrow=halfCircle;endFill=0;endSize=6;strokeWidth=1;sketch=0;fontSize=12;curved=1;exitX=0.75;exitY=1;exitDx=0;exitDy=0;" edge="1" target="6i6IMKK7F-a5kFC0047l-5" parent="1" source="NVh-Q_JutHyr8wLeL-ER-17">
          <mxGeometry relative="1" as="geometry">
            <mxPoint x="690" y="655" as="sourcePoint" />
          </mxGeometry>
        </mxCell>
        <mxCell id="6i6IMKK7F-a5kFC0047l-4" value="" style="rounded=0;orthogonalLoop=1;jettySize=auto;html=1;endArrow=oval;endFill=0;sketch=0;sourcePerimeterSpacing=0;targetPerimeterSpacing=0;endSize=10;fontSize=12;curved=1;exitX=0.5;exitY=0;exitDx=0;exitDy=0;" edge="1" target="6i6IMKK7F-a5kFC0047l-5" parent="1" source="6i6IMKK7F-a5kFC0047l-1">
          <mxGeometry relative="1" as="geometry">
            <mxPoint x="790" y="680" as="sourcePoint" />
          </mxGeometry>
        </mxCell>
        <mxCell id="6i6IMKK7F-a5kFC0047l-6" value="error" style="edgeLabel;html=1;align=center;verticalAlign=middle;resizable=0;points=[];fontSize=12;" vertex="1" connectable="0" parent="6i6IMKK7F-a5kFC0047l-4">
          <mxGeometry x="0.3333" y="-3" relative="1" as="geometry">
            <mxPoint x="-3" y="3" as="offset" />
          </mxGeometry>
        </mxCell>
        <mxCell id="6i6IMKK7F-a5kFC0047l-5" value="" style="ellipse;whiteSpace=wrap;html=1;align=center;aspect=fixed;fillColor=none;strokeColor=none;resizable=0;perimeter=centerPerimeter;rotatable=0;allowArrows=0;points=[];outlineConnect=1;" vertex="1" parent="1">
          <mxGeometry x="730" y="680" width="10" height="10" as="geometry" />
        </mxCell>
      </root>
    </mxGraphModel>
  </diagram>
</mxfile>
